HIERARCHY
ROOT joint_Root
{
	OFFSET 0.0 0.0 0.0
	CHANNELS 6 Xposition Yposition Zposition Zrotation Xrotation Yrotation 
	JOINT Hips
	{
		OFFSET 4.5925 91.4895 -427.239
		CHANNELS 6 Xposition Yposition Zposition Zrotation Xrotation Yrotation 
		JOINT Spine
		{
			OFFSET 15.7357 0.0 0.0
			CHANNELS 6 Xposition Yposition Zposition Zrotation Xrotation Yrotation 
			JOINT Chest
			{
				OFFSET 8.98455 -0.406207 0.0
				CHANNELS 6 Xposition Yposition Zposition Zrotation Xrotation Yrotation 
				JOINT Neck
				{
					OFFSET 16.3773 0.0 0.0
					CHANNELS 6 Xposition Yposition Zposition Zrotation Xrotation Yrotation 
					JOINT Head
					{
						OFFSET 6.45672 0.0 0.0
						CHANNELS 6 Xposition Yposition Zposition Zrotation Xrotation Yrotation 
						End Site
						{
							OFFSET 0.0 0.0 0.0
						}
					}
				}
				JOINT Shoulder_L
				{
					OFFSET 12.9942 -0.242716 4.98039
					CHANNELS 6 Xposition Yposition Zposition Zrotation Xrotation Yrotation 
					JOINT UpperArm_L
					{
						OFFSET 5.34809 0.0 0.0
						CHANNELS 6 Xposition Yposition Zposition Zrotation Xrotation Yrotation 
						JOINT LowerArm_L
						{
							OFFSET 24.3286 1.87007e-05 0.0
							CHANNELS 6 Xposition Yposition Zposition Zrotation Xrotation Yrotation 
							JOINT Hand_L
							{
								OFFSET 22.2916 0.0 0.0
								CHANNELS 6 Xposition Yposition Zposition Zrotation Xrotation Yrotation 
								End Site
								{
									OFFSET 0.0 0.0 0.0
								}
							}
						}
					}
				}
				JOINT Shoulder_R
				{
					OFFSET 12.9945 -0.242716 -4.98039
					CHANNELS 6 Xposition Yposition Zposition Zrotation Xrotation Yrotation 
					JOINT UpperArm_R
					{
						OFFSET -5.34813 0.0 0.0
						CHANNELS 6 Xposition Yposition Zposition Zrotation Xrotation Yrotation 
						JOINT LowerArm_R
						{
							OFFSET -24.3289 0.000322201 0.0
							CHANNELS 6 Xposition Yposition Zposition Zrotation Xrotation Yrotation 
							JOINT Hand_R
							{
								OFFSET -22.2915 -0.000108084 0.0
								CHANNELS 6 Xposition Yposition Zposition Zrotation Xrotation Yrotation 
								End Site
								{
									OFFSET 0.0 0.0 0.0
								}
							}
						}
					}
				}
			}
		}
		JOINT UpperLeg_L
		{
			OFFSET -2.19248 -6.46944 0.0
			CHANNELS 6 Xposition Yposition Zposition Zrotation Xrotation Yrotation 
			JOINT LowerLeg_L
			{
				OFFSET 39.0811 0.0 -1.23785e-05
				CHANNELS 6 Xposition Yposition Zposition Zrotation Xrotation Yrotation 
				JOINT Foot_L
				{
					OFFSET 40.9854 0.0 -1.26872e-05
					CHANNELS 6 Xposition Yposition Zposition Zrotation Xrotation Yrotation 
					JOINT Toes_L
					{
						OFFSET 11.7543 0.0 0.0
						CHANNELS 6 Xposition Yposition Zposition Zrotation Xrotation Yrotation 
						End Site
						{
							OFFSET 0.0 0.0 0.0
						}
					}
				}
			}
		}
		JOINT UpperLeg_R
		{
			OFFSET -2.19251 6.46944 0.0
			CHANNELS 6 Xposition Yposition Zposition Zrotation Xrotation Yrotation 
			JOINT LowerLeg_R
			{
				OFFSET -39.0811 -0.00228153 -0.0401928
				CHANNELS 6 Xposition Yposition Zposition Zrotation Xrotation Yrotation 
				JOINT Foot_R
				{
					OFFSET -40.9854 0.0 0.0
					CHANNELS 6 Xposition Yposition Zposition Zrotation Xrotation Yrotation 
					JOINT Toes_R
					{
						OFFSET -11.7543 0.0 0.0
						CHANNELS 6 Xposition Yposition Zposition Zrotation Xrotation Yrotation 
						End Site
						{
							OFFSET 0.0 0.0 0.0
						}
					}
				}
			}
		}
	}
}
MOTION
Frames:	6
Frame Time:	0.0333333
0.000000 0.000000 0.000000 0.000000 0.000000 -0.000000 -11.018100 89.765900 -3.201120 84.666700 -1.177160 14.850100 15.735700 0.000005 -0.000001 84.873200 82.693300 -82.897900 8.984550 -0.406207 -0.000000 6.816070 -1.317910 4.024940 16.377300 -0.000001 -0.000001 33.980600 -2.670040 0.193434 6.456720 -0.000001 -0.000000 17.474100 -1.264940 6.594410 12.994200 -0.242716 4.980390 -86.578300 -8.249210 -67.377400 5.348090 -0.000007 -0.000001 -70.647000 -44.067500 -97.261900 24.328600 0.000019 0.000005 19.298500 9.115560 -65.656400 22.291600 -0.000001 0.000005 28.133000 5.399450 -2.919720 12.994500 -0.242716 -4.980390 91.396100 -4.555540 -72.941900 -5.348130 -0.000001 -0.000004 -60.082900 -40.389300 -94.015600 -24.328900 0.000322 -0.000009 5.333750 2.696610 -63.261300 -22.291500 -0.000108 -0.000004 31.788000 5.509150 -6.906750 -2.192480 -6.469440 -0.000000 -162.076000 -8.273050 0.578551 39.081100 -0.000007 -0.000012 -0.310534 0.449377 34.646300 40.985400 -0.000006 -0.000013 -6.320830 8.486170 -69.035700 11.754300 -0.000000 0.000003 -0.000083 -0.000880 -16.611500 -2.192510 6.469440 -0.000001 -178.127000 30.196700 -172.986000 -39.081100 -0.002282 -0.040193 -0.128542 0.231816 29.629100 -40.985400 0.000008 0.000006 11.854300 14.857400 -73.296200 -11.754300 -0.000006 -0.000006 -0.000398 -0.006448 -16.835700
0.000000 0.000000 0.000000 0.000000 0.000000 -0.000000 -11.041900 89.758900 -3.231450 84.683600 -1.172880 14.831200 15.735700 0.000005 -0.000001 84.884300 82.693900 -82.902800 8.984550 -0.406207 -0.000000 6.815140 -1.315040 4.037180 16.377300 -0.000001 -0.000001 34.014000 -2.754200 0.190373 6.456720 -0.000001 -0.000000 17.523600 -1.349780 6.663470 12.994200 -0.242716 4.980390 -86.557900 -8.268190 -67.302200 5.348090 -0.000007 -0.000001 -70.940600 -44.080100 -97.541400 24.328600 0.000019 0.000005 19.318400 9.087700 -65.745500 22.291600 -0.000001 0.000005 28.120900 5.397190 -2.846490 12.994500 -0.242716 -4.980390 91.407200 -4.571690 -72.870600 -5.348130 -0.000001 -0.000004 -60.107600 -40.533700 -94.129300 -24.328900 0.000322 -0.000009 5.342740 2.701590 -63.257800 -22.291500 -0.000108 -0.000004 31.929000 5.508910 -6.897190 -2.192480 -6.469440 -0.000000 -162.075000 -8.273920 0.528119 39.081100 -0.000007 -0.000012 -0.314338 0.454749 34.654200 40.985400 -0.000006 -0.000013 -6.335150 8.514270 -69.010400 11.754300 -0.000000 0.000003 -0.000080 -0.000847 -16.610200 -2.192510 6.469440 -0.000001 -178.087000 30.173700 -173.070000 -39.081100 -0.002282 -0.040193 -0.129582 0.233186 29.677300 -40.985400 0.000008 0.000006 11.871600 14.808300 -73.296200 -11.754300 -0.000006 -0.000006 -0.000595 -0.009469 -16.958500
0.000000 0.000000 0.000000 0.000000 0.000000 -0.000000 -11.057100 89.763900 -3.253350 84.690800 -1.163030 14.874600 15.735700 0.000005 -0.000001 84.918700 82.686900 -82.915000 8.984550 -0.406207 -0.000000 6.830010 -1.307480 4.081150 16.377300 -0.000001 -0.000001 34.083300 -2.809280 0.199351 6.456720 -0.000001 -0.000000 17.458100 -1.437320 6.669500 12.994200 -0.242716 4.980390 -86.556700 -8.262480 -67.281600 5.348090 -0.000007 -0.000001 -71.142800 -44.073800 -97.671000 24.328600 0.000019 0.000005 19.320200 9.070990 -65.786900 22.291600 -0.000001 0.000005 28.147100 5.397890 -2.869060 12.994500 -0.242716 -4.980390 91.422600 -4.612400 -72.837200 -5.348130 -0.000001 -0.000004 -60.093400 -40.670500 -94.167200 -24.328900 0.000322 -0.000009 5.365210 2.712050 -63.266100 -22.291500 -0.000108 -0.000004 31.849200 5.509810 -6.933810 -2.192480 -6.469440 -0.000000 -162.082000 -8.266220 0.566243 39.081100 -0.000007 -0.000012 -0.307911 0.445800 34.633100 40.985400 -0.000006 -0.000013 -6.340500 8.498960 -68.984000 11.754300 -0.000000 0.000003 -0.000084 -0.000887 -16.611700 -2.192510 6.469440 -0.000001 -178.117000 30.211400 -173.012000 -39.081100 -0.002282 -0.040193 -0.127032 0.228991 29.647400 -40.985400 0.000008 0.000006 11.890000 14.842100 -73.283200 -11.754300 -0.000006 -0.000006 -0.000387 -0.006285 -16.829100
0.000000 0.000000 0.000000 0.000000 0.000000 -0.000000 -11.071600 89.755200 -3.266450 84.704700 -1.190450 14.896600 15.735700 0.000005 -0.000001 84.990700 82.674500 -82.969000 8.984550 -0.406207 -0.000000 6.856360 -1.291040 4.116480 16.377300 -0.000001 -0.000001 34.061900 -2.840920 0.242741 6.456720 -0.000001 -0.000000 17.444000 -1.518580 6.653540 12.994200 -0.242716 4.980390 -86.569500 -8.227700 -67.272100 5.348090 -0.000007 -0.000001 -71.290300 -44.127400 -97.787600 24.328600 0.000019 0.000005 19.305600 9.071950 -65.767100 22.291600 -0.000001 0.000005 28.217700 5.397170 -2.846180 12.994500 -0.242716 -4.980390 91.443500 -4.674750 -72.818200 -5.348130 -0.000001 -0.000004 -60.219500 -40.744400 -94.290200 -24.328900 0.000322 -0.000009 5.332540 2.698310 -63.241400 -22.291500 -0.000108 -0.000004 31.834700 5.510190 -6.949670 -2.192480 -6.469440 -0.000000 -162.073000 -8.273700 0.573905 39.081100 -0.000007 -0.000012 -0.310065 0.448573 34.653800 40.985400 -0.000006 -0.000013 -6.353860 8.499680 -68.982600 11.754300 -0.000000 0.000003 -0.000078 -0.000834 -16.609700 -2.192510 6.469440 -0.000001 -178.103000 30.173000 -173.034000 -39.081100 -0.002282 -0.040193 -0.126958 0.228401 29.696900 -40.985400 0.000008 0.000006 11.898700 14.785900 -73.292000 -11.754300 -0.000006 -0.000006 -0.000532 -0.008526 -16.920100
0.000000 0.000000 0.000000 0.000000 0.000000 -0.000000 -11.081200 89.756800 -3.296390 84.698200 -1.192050 14.908200 15.735700 0.000005 -0.000001 84.973800 82.675900 -82.927000 8.984550 -0.406207 -0.000000 6.853640 -1.295350 4.166740 16.377300 -0.000001 -0.000001 34.123600 -2.864610 0.306842 6.456720 -0.000001 -0.000000 17.392300 -1.581410 6.633190 12.994200 -0.242716 4.980390 -86.581800 -8.179700 -67.227000 5.348090 -0.000007 -0.000001 -71.424300 -44.052100 -97.875900 24.328600 0.000019 0.000005 19.294900 9.100130 -65.688200 22.291600 -0.000001 0.000005 28.163000 5.395930 -2.806020 12.994500 -0.242716 -4.980390 91.451100 -4.684530 -72.766800 -5.348130 -0.000001 -0.000004 -60.401600 -40.672700 -94.526700 -24.328900 0.000322 -0.000009 5.320620 2.709430 -63.094700 -22.291500 -0.000108 -0.000004 31.848800 5.510920 -6.979790 -2.192480 -6.469440 -0.000000 -162.070000 -8.253530 0.563570 39.081100 -0.000007 -0.000012 -0.310834 0.449721 34.651700 40.985400 -0.000006 -0.000013 -6.362100 8.481150 -68.961600 11.754300 -0.000000 0.000003 -0.000083 -0.000880 -16.611400 -2.192510 6.469440 -0.000001 -178.079000 30.154400 -173.051000 -39.081100 -0.002282 -0.040193 -0.125620 0.226079 29.694300 -40.985400 0.000008 0.000006 11.913500 14.802400 -73.270400 -11.754300 -0.000006 -0.000006 -0.000525 -0.008406 -16.915300
0.000000 0.000000 0.000000 0.000000 0.000000 -0.000000 -11.091000 89.752300 -3.306140 84.709000 -1.211650 14.962500 15.735700 0.000005 -0.000001 85.060600 82.669200 -83.000100 8.984550 -0.406207 -0.000000 6.868670 -1.274280 4.193190 16.377300 -0.000001 -0.000001 34.126300 -2.898070 0.361974 6.456720 -0.000001 -0.000000 17.429100 -1.604500 6.712920 12.994200 -0.242716 4.980390 -86.571900 -8.199660 -67.217300 5.348090 -0.000007 -0.000001 -71.585700 -43.949000 -97.908900 24.328600 0.000019 0.000005 19.256600 9.101330 -65.639300 22.291600 -0.000001 0.000005 28.112500 5.399170 -2.910810 12.994500 -0.242716 -4.980390 91.459300 -4.704380 -72.743700 -5.348130 -0.000001 -0.000004 -60.556500 -40.628000 -94.677400 -24.328900 0.000322 -0.000009 5.312760 2.712590 -63.033300 -22.291500 -0.000108 -0.000004 31.741300 5.510670 -6.969500 -2.192480 -6.469440 -0.000000 -162.065000 -8.255530 0.612769 39.081100 -0.000007 -0.000012 -0.309569 0.447696 34.663400 40.985400 -0.000006 -0.000013 -6.374320 8.454710 -68.961500 11.754300 -0.000000 0.000003 -0.000077 -0.000820 -16.609200 -2.192510 6.469440 -0.000001 -178.095000 30.129500 -173.007000 -39.081100 -0.002282 -0.040193 -0.124481 0.223905 29.713700 -40.985400 0.000008 0.000006 11.915300 14.760000 -73.275100 -11.754300 -0.000006 -0.000006 -0.000439 -0.007090 -16.861800
